<svg xmlns="http://www.w3.org/2000/svg" viewBox="0 0 29 29" version="1.1">
  <path d="m 14.767,27.573 c 3.11,-11.19 3.02,-11.24 5.267,-19.217 l 0.54,0.314 c 0.294,0.17 0.534,0.03 0.534,-0.31 V 4.557 c 0.596,-2.102 1.064,-3.726 1.2,-4.215 h 2.435 l 4.045,3.772 -2.656,2.31 2.01,2.186 L 14.9,27.573 c -0.065,0.107 -0.155,0.083 -0.135,0 z"/>
  <path d="m 16.214,3.457 c 0.12,0 0.217,0.066 0.217,0.15 v 1.95 c 0,0.08 -0.09,0.148 -0.21,0.148 h -3.27 c -0.12,0 -0.22,-0.067 -0.22,-0.15 v -1.95 c 0,-0.082 0.1,-0.148 0.22,-0.148 h 3.27 z m 4.036,-2.16 -3.598,2.09 c 0.042,0.065 0.067,0.14 0.067,0.22 v 1.95 c 0,0.1 -0.04,0.19 -0.11,0.265 l 3.63,2.11 c 0.24,0.145 0.45,0.027 0.45,-0.26 V 1.56 c 0,-0.288 -0.21,-0.406 -0.45,-0.262 z m -7.813,4.26 v -1.95 c 0,-0.08 0.025,-0.155 0.066,-0.22 L 8.905,1.297 C 8.658,1.154 8.455,1.272 8.455,1.559 v 6.11 c 0,0.29 0.202,0.4 0.45,0.26 l 3.635,-2.11 a 0.424,0.424 0 0 1 -0.104,-0.27 z"/>
  <path d="M 14.246,27.573 H 14.38 C 11.27,16.383 11.36,16.333 9.114,8.356 L 8.574,8.67 C 8.28,8.84 8.039,8.7 8.039,8.36 V 4.557 C 7.44,2.454 6.97,0.83 6.83,0.34 H 4.4 l -4.04,3.773 2.655,2.31 -2.01,2.186 13.24,18.96 z"/>
  <ellipse ry="0.99" rx="0.99" cy="8.8" cx="14.475"/>
  <ellipse ry="0.99" rx="0.99" cy="14.7" cx="14.475"/>
  <ellipse ry="0.99" rx="0.99" cy="20.5" cx="14.475"/>
</svg>
